<?xml version="1.0" encoding="utf-8"?>
<svg version="1.1" xmlns:xlink="http://www.w3.org/1999/xlink" width="25px" height="20px" xmlns="http://www.w3.org/2000/svg">
  <g transform="matrix(1 0 0 1 -318 -4085 )">
    <path d="M 25 2.5  C 25 1.1187499999999995  23.88125 0  22.5 0  L 2.5 0  C 1.11875 0  0.012499999999999735 1.1187499999999995  0 2.5  L 0 17.5  C 0 18.88125  1.11875 20  2.5 20  L 22.5 20  C 23.88125 20  25 18.88125  25 17.5  L 25 2.5  Z M 22.5 5  L 22.5 17.5  L 2.5 17.5  L 2.5 5  L 12.5 11.25  L 22.5 5  Z M 22.5 2.5  L 12.5 8.75  L 2.5 2.5  L 22.5 2.5  Z " fill-rule="nonzero" fill="#0c1b33" stroke="none" transform="matrix(1 0 0 1 318 4085 )" />
  </g>
</svg>