<?xml version="1.0" encoding="utf-8"?>
<svg version="1.1" xmlns:xlink="http://www.w3.org/1999/xlink" width="64px" height="62px" xmlns="http://www.w3.org/2000/svg">
  <g transform="matrix(1 0 0 1 -206 -602 )">
    <path d="M 63.3587174348697 28.4968944099379  C 63.7862391449566 28.9247757073844  64 29.4168391994479  64 29.9730848861284  C 64 30.5293305728088  63.7862391449566 31.0213940648723  63.3587174348697 31.4492753623188  L 33.4749498997996 61.3581780538302  C 33.0474281897128 61.7860593512767  32.5557782231129 62  32 62  C 31.4442217768871 62  30.9525718102872 61.7860593512767  30.5250501002004 61.3581780538302  L 0.641282565130261 31.4492753623188  C 0.213760855043421 31.0213940648723  0 30.5293305728088  0 29.9730848861284  C 0 29.4168391994479  0.213760855043421 28.9247757073844  0.641282565130261 28.4968944099379  L 3.84769539078156 25.287784679089  C 4.2752171008684 24.8599033816425  4.76686706746827 24.6459627329193  5.32264529058116 24.6459627329193  C 5.87842351369406 24.6459627329193  6.37007348029392 24.8599033816425  6.79759519038076 25.287784679089  L 32 50.5113871635611  L 57.2024048096192 25.287784679089  C 57.6299265197061 24.8599033816425  58.1215764863059 24.6459627329193  58.6773547094188 24.6459627329193  C 59.2331329325317 24.6459627329193  59.7247828991316 24.8599033816425  60.1523046092184 25.287784679089  L 63.3587174348697 28.4968944099379  Z M 63.3587174348697 3.85093167701863  C 63.7862391449566 4.27881297446514  64 4.77087646652864  64 5.32712215320911  C 64 5.88336783988957  63.7862391449566 6.37543133195306  63.3587174348697 6.80331262939958  L 33.4749498997996 36.712215320911  C 33.0474281897128 37.1400966183575  32.5557782231129 37.3540372670807  32 37.3540372670807  C 31.4442217768871 37.3540372670807  30.9525718102872 37.1400966183575  30.5250501002004 36.712215320911  L 0.641282565130261 6.80331262939958  C 0.213760855043421 6.37543133195306  0 5.88336783988957  0 5.32712215320911  C 0 4.77087646652864  0.213760855043421 4.27881297446514  0.641282565130261 3.85093167701863  L 3.84769539078156 0.641821946169771  C 4.2752171008684 0.213940648723252  4.76686706746827 0  5.32264529058116 0  C 5.87842351369406 0  6.37007348029392 0.213940648723252  6.79759519038076 0.641821946169771  L 32 25.8654244306418  L 57.2024048096192 0.641821946169771  C 57.6299265197061 0.213940648723252  58.1215764863059 0  58.6773547094188 0  C 59.2331329325317 0  59.7247828991316 0.213940648723252  60.1523046092184 0.641821946169771  L 63.3587174348697 3.85093167701863  Z " fill-rule="nonzero" fill="#0c1b33" stroke="none" transform="matrix(1 0 0 1 206 602 )" />
  </g>
</svg>