<?xml version="1.0" encoding="utf-8"?>
<svg version="1.1" xmlns:xlink="http://www.w3.org/1999/xlink" width="25px" height="25px" xmlns="http://www.w3.org/2000/svg">
  <g transform="matrix(1 0 0 1 -259 -4082 )">
    <path d="M 15.185546875 14.54295865633075  C 15.608723958333334 14.020779500430663  15.890842013888893 13.75968992248062  16.031901041666664 13.75968992248062  C 16.172960069444446 13.75968992248062  16.701931423611114 13.996554694229113  17.618815104166664 14.4702842377261  C 18.535698784722225 14.94401378122308  19.021267361111114 15.229328165374678  19.075520833333336 15.326227390180879  C 19.097222222222225 15.380060292850988  19.108072916666664 15.460809646856157  19.108072916666664 15.568475452196385  C 19.108072916666664 15.923772609819121  19.015842013888893 16.33290267011197  18.831380208333336 16.795865633074936  C 18.657769097222225 17.21576227390181  18.272569444444446 17.568367786391043  17.67578125 17.853682170542633  C 17.078993055555557 18.138996554694227  16.52560763888889 18.281653746770026  16.015625 18.281653746770026  C 15.397135416666668 18.281653746770026  14.366319444444445 17.947889750215328  12.923177083333334 17.280361757105943  C 11.859809027777779 16.795865633074936  10.9375 16.16063738156761  10.15625 15.374677002583981  C 9.375 14.588716623600344  8.572048611111112 13.59280792420327  7.747395833333333 12.386950904392766  C 6.966145833333333 11.234926787252366  6.580946180555556 10.190568475452197  6.591796875 9.253875968992247  L 6.591796875 9.124677002583978  C 6.624348958333334 8.14491817398794  7.025824652777779 7.29435831180017  7.796223958333333 6.57299741602067  C 8.056640625 6.336132644272177  8.338758680555557 6.217700258397932  8.642578125 6.217700258397932  C 8.707682291666668 6.217700258397932  8.805338541666668 6.22577519379845  8.935546875 6.241925064599482  C 9.065755208333332 6.258074935400518  9.168836805555557 6.266149870801033  9.244791666666668 6.266149870801033  C 9.450954861111112 6.266149870801033  9.5947265625 6.301141257536605  9.676106770833332 6.371124031007752  C 9.757486979166668 6.441106804478896  9.841579861111112 6.5891472868217065  9.928385416666668 6.815245478036175  C 10.015190972222223 7.030577088716622  10.194227430555557 7.504306632213606  10.465494791666668 8.236434108527133  C 10.736762152777779 8.968561584840653  10.872395833333332 9.372308354866494  10.872395833333332 9.44767441860465  C 10.872395833333332 9.673772609819121  10.685221354166668 9.983311800172265  10.310872395833332 10.376291989664082  C 9.9365234375 10.769272179155898  9.749348958333332 11.01959517657192  9.749348958333332 11.127260981912146  C 9.749348958333332 11.202627045650301  9.776475694444446 11.283376399655468  9.830729166666668 11.369509043927648  C 10.199652777777779 12.155469422911283  10.753038194444446 12.892980189491816  11.490885416666668 13.58204134366925  C 12.098524305555557 14.152670111972437  12.917751736111112 14.696382428940568  13.948567708333334 15.213178294573643  C 14.078776041666666 15.288544358311798  14.198133680555555 15.326227390180879  14.306640625 15.326227390180879  C 14.469401041666668 15.326227390180879  14.762369791666668 15.065137812230834  15.185546875 14.54295865633075  Z M 7.112630208333333 20.63953488372093  C 8.827039930555557 21.75925925925926  10.698784722222221 22.319121447028422  12.727864583333334 22.319121447028422  C 14.105902777777779 22.319121447028422  15.426974826388893 22.049956933677862  16.691080729166664 21.511627906976745  C 17.955186631944446 20.973298880275625  19.04296875 20.251937984496124  19.954427083333336 19.347545219638242  C 20.865885416666664 18.44315245478036  21.592881944444446 17.363802756244613  22.135416666666664 16.109496124031008  C 22.677951388888893 14.855189491817397  22.94921875 13.54435831180017  22.94921875 12.177002583979329  C 22.94921875 10.809646856158484  22.677951388888893 9.498815676141255  22.135416666666664 8.244509043927648  C 21.592881944444446 6.990202411714039  20.865885416666664 5.9108527131782935  19.954427083333336 5.006459948320413  C 19.04296875 4.102067183462532  17.955186631944446 3.3807062876830303  16.691080729166664 2.8423772609819125  C 15.426974826388893 2.3040482342807893  14.105902777777779 2.0348837209302335  12.727864583333334 2.0348837209302335  C 11.34982638888889 2.0348837209302335  10.028754340277779 2.3040482342807893  8.7646484375 2.8423772609819125  C 7.500542534722222 3.3807062876830303  6.412760416666667 4.102067183462532  5.501302083333334 5.006459948320413  C 4.58984375 5.9108527131782935  3.8628472222222223 6.990202411714039  3.3203125 8.244509043927648  C 2.777777777777778 9.498815676141255  2.506510416666667 10.809646856158484  2.506510416666667 12.177002583979329  C 2.506510416666667 14.362618432385874  3.1575520833333335 16.343669250645995  4.459635416666666 18.120155038759687  L 3.173828125 21.88307493540052  L 7.112630208333333 20.63953488372093  Z M 7.967122395833333 0.9689922480620144  C 9.480794270833332 0.32299741602067056  11.067708333333332 0  12.727864583333334 0  C 14.388020833333334 0  15.974934895833334 0.32299741602067056  17.488606770833336 0.9689922480620144  C 19.002278645833336 1.6149870801033583  20.30707465277778 2.48169681309216  21.402994791666664 3.5691214470284227  C 22.498914930555557 4.656546080964685  23.372395833333336 5.95122739018088  24.0234375 7.4531653746770035  C 24.674479166666664 8.955103359173124  25 10.5297157622739  25 12.177002583979329  C 25 13.824289405684754  24.674479166666664 15.398901808785531  24.0234375 16.90083979328165  C 23.372395833333336 18.40277777777778  22.498914930555557 19.69745908699397  21.402994791666664 20.78488372093023  C 20.30707465277778 21.872308354866494  19.002278645833336 22.739018087855296  17.488606770833336 23.385012919896642  C 15.974934895833334 24.031007751937985  14.388020833333334 24.354005167958658  12.727864583333334 24.354005167958658  C 10.611979166666668 24.354005167958658  8.631727430555557 23.847975882859604  6.787109375 22.8359173126615  L 0 25  L 2.213541666666667 18.459302325581394  C 1.0416666666666665 16.54285099052541  0.4557291666666667 14.448751076658054  0.4557291666666667 12.177002583979329  C 0.4557291666666667 10.5297157622739  0.78125 8.955103359173124  1.4322916666666665 7.4531653746770035  C 2.083333333333333 5.95122739018088  2.9568142361111116 4.656546080964685  4.052734375 3.5691214470284227  C 5.148654513888889 2.48169681309216  6.453450520833333 1.6149870801033583  7.967122395833333 0.9689922480620144  Z " fill-rule="nonzero" fill="#0c1b33" stroke="none" transform="matrix(1 0 0 1 259 4082 )" />
  </g>
</svg>